<svg id="logo" xmlns="http://www.w3.org/2000/svg" viewBox="0 0 388 177">
  <path d="M372 3.7c15.4 56.3 14.4 112.4 3 169l-18-2.4c-20-3-39.8-7.5-59.1-13.6a183.4 183.4 0 0 1-68.9-41.4c-2.8-2.5-5.5-5.2-8.4-8-2.8 3.3-6.6 3.4-10.6 3.4h-32.3c-3.7 0-7.1-.3-8.7-2.2-5 4-10.4 7.9-15.3 12a183.6 183.6 0 0 1-37 25.3c-7.1 3.5-14.9 6.3-22.5 9.2-25.2 9.6-51.8 14-78.7 17.5h-2C2.1 116 1.1 60 16.5 3.7l27.3 5.5c19 4 37.8 8.2 55.8 14.9a195.1 195.1 0 0 1 65.8 42l2.8 2.7c3-3 6.7-3.1 10.6-3.1h32c3.4 0 7-.1 9.4 3.5 2.9-2.6 5.3-5 8-7.3 7.2-5.7 14.3-11.4 21.7-16.8 10.7-8 22.4-14.5 34.8-19.4 17.6-6.9 36-11.2 54.6-15.3C350 8 360.8 5.9 372 3.7zM269 64.9l-.5.2-1.2.2-41.5 11.8c-4.6 1.4-4.5 1.6-3.6 5.8l46.3-17.8.5-.2zm-8.2 45.8l7.4 1.6-46.1-17.9c-.5 4.5-.5 4.6 4.2 6.1l27 8.4 7.5 1.8zm-98.5-10.2c4.8-1.4 4.7-1.6 4.1-6-15.3 6-30.5 11.9-45.6 17.6l2.3-.4 39.2-11.2zm4-17.5c1-4.2 1-4.5-3.3-5.8L124.3 66l-2.6-.4L166.3 83z"/>
  <path d="M268.5 65l.5-.1c-.2.1-.3.2-.5.1z"/>
</svg>
