<?xml version="1.0" encoding="utf-8"?>
<!DOCTYPE svg PUBLIC "-//W3C//DTD SVG 1.1//EN" "http://www.w3.org/Graphics/SVG/1.1/DTD/svg11.dtd">
<svg id="paper_clip" xmlns="http://www.w3.org/2000/svg" width="50" height="64">
  <path d="M50.1 49.5q0 4.1-2.8 7t-7 2.8q-4.8 0-8.4-3.6L4.2 28q-4-4.1-4-9.7 0-5.7 3.9-9.6t9.6-4q5.6 0 9.7 4L45 30.4q.4.3.4.8t-1.1 1.6-1.7 1.1q-.4 0-.8-.3L20.2 11.9Q17.4 9 13.7 9q-3.8 0-6.4 2.7t-2.6 6.5q0 3.7 2.7 6.4l27.7 27.8q2.3 2.3 5.2 2.3 2.3 0 3.8-1.5t1.5-3.8q0-3-2.2-5.2L22.6 23.5q-1-.8-2.1-.8-1 0-1.7.7T18 25q0 1.1.9 2l14.6 14.7q.4.4.4.8 0 .6-1.1 1.7t-1.7 1q-.4 0-.8-.3L15.8 30.4q-2.3-2.2-2.3-5.3 0-3 2-5t5-2q3.1 0 5.3 2.2l20.8 20.8q3.5 3.5 3.5 8.4z"/>
</svg>
